<mxfile host="app.diagrams.net" agent="Mozilla/5.0 (Windows NT 10.0; Win64; x64; rv:131.0) Gecko/20100101 Firefox/131.0" version="24.7.17">
  <diagram name="Страница — 1" id="HydqrmE2iwsBUO1qzlQ4">
    <mxGraphModel dx="1929" dy="2082" grid="1" gridSize="10" guides="1" tooltips="1" connect="1" arrows="1" fold="1" page="1" pageScale="1" pageWidth="827" pageHeight="1169" math="0" shadow="0">
      <root>
        <mxCell id="0" />
        <mxCell id="1" parent="0" />
        <mxCell id="KikncAoep48kT-CLDqjX-2" value="Музыкант" style="rounded=0;whiteSpace=wrap;html=1;" vertex="1" parent="1">
          <mxGeometry x="210" y="50" width="120" height="60" as="geometry" />
        </mxCell>
        <mxCell id="KikncAoep48kT-CLDqjX-6" value="Альбом" style="rounded=0;whiteSpace=wrap;html=1;" vertex="1" parent="1">
          <mxGeometry x="210" y="280" width="120" height="60" as="geometry" />
        </mxCell>
        <mxCell id="KikncAoep48kT-CLDqjX-18" value="" style="endArrow=none;html=1;rounded=0;entryX=0.5;entryY=0;entryDx=0;entryDy=0;" edge="1" parent="1" source="KikncAoep48kT-CLDqjX-6" target="KikncAoep48kT-CLDqjX-65">
          <mxGeometry width="50" height="50" relative="1" as="geometry">
            <mxPoint x="380" y="360" as="sourcePoint" />
            <mxPoint x="240" y="410" as="targetPoint" />
          </mxGeometry>
        </mxCell>
        <mxCell id="KikncAoep48kT-CLDqjX-22" value="Песня" style="rounded=1;whiteSpace=wrap;html=1;" vertex="1" parent="1">
          <mxGeometry x="525" y="430" width="120" height="60" as="geometry" />
        </mxCell>
        <mxCell id="KikncAoep48kT-CLDqjX-24" value="" style="endArrow=none;html=1;rounded=0;exitX=0;exitY=0.5;exitDx=0;exitDy=0;" edge="1" parent="1" source="KikncAoep48kT-CLDqjX-6" target="KikncAoep48kT-CLDqjX-32">
          <mxGeometry width="50" height="50" relative="1" as="geometry">
            <mxPoint x="60" y="220" as="sourcePoint" />
            <mxPoint x="100" y="330" as="targetPoint" />
          </mxGeometry>
        </mxCell>
        <mxCell id="KikncAoep48kT-CLDqjX-28" value="Чарт(как участие)" style="rhombus;whiteSpace=wrap;html=1;" vertex="1" parent="1">
          <mxGeometry x="500" y="190" width="130" height="80" as="geometry" />
        </mxCell>
        <mxCell id="KikncAoep48kT-CLDqjX-32" value="Название жанра" style="ellipse;whiteSpace=wrap;html=1;" vertex="1" parent="1">
          <mxGeometry x="-20" y="320" width="120" height="80" as="geometry" />
        </mxCell>
        <mxCell id="KikncAoep48kT-CLDqjX-34" value="Лейбл" style="rounded=1;whiteSpace=wrap;html=1;" vertex="1" parent="1">
          <mxGeometry x="-630" y="70" width="120" height="60" as="geometry" />
        </mxCell>
        <mxCell id="KikncAoep48kT-CLDqjX-38" value="название песни" style="ellipse;whiteSpace=wrap;html=1;" vertex="1" parent="1">
          <mxGeometry x="525" y="565" width="120" height="80" as="geometry" />
        </mxCell>
        <mxCell id="KikncAoep48kT-CLDqjX-39" value="&lt;div&gt;Имя музыканта&lt;/div&gt;&lt;div&gt;&lt;br&gt;&lt;/div&gt;" style="ellipse;whiteSpace=wrap;html=1;" vertex="1" parent="1">
          <mxGeometry x="240" y="-80" width="120" height="80" as="geometry" />
        </mxCell>
        <mxCell id="KikncAoep48kT-CLDqjX-40" value="" style="endArrow=none;html=1;rounded=0;" edge="1" parent="1" source="KikncAoep48kT-CLDqjX-2" target="KikncAoep48kT-CLDqjX-39">
          <mxGeometry width="50" height="50" relative="1" as="geometry">
            <mxPoint x="360" y="350" as="sourcePoint" />
            <mxPoint x="410" y="300" as="targetPoint" />
          </mxGeometry>
        </mxCell>
        <mxCell id="KikncAoep48kT-CLDqjX-41" value="" style="endArrow=none;html=1;rounded=0;entryX=0.5;entryY=0;entryDx=0;entryDy=0;" edge="1" parent="1" target="KikncAoep48kT-CLDqjX-34">
          <mxGeometry width="50" height="50" relative="1" as="geometry">
            <mxPoint x="-470" y="-10" as="sourcePoint" />
            <mxPoint x="-140" y="300" as="targetPoint" />
          </mxGeometry>
        </mxCell>
        <mxCell id="KikncAoep48kT-CLDqjX-42" value="Название" style="ellipse;whiteSpace=wrap;html=1;" vertex="1" parent="1">
          <mxGeometry x="-530" y="-90" width="120" height="80" as="geometry" />
        </mxCell>
        <mxCell id="KikncAoep48kT-CLDqjX-43" value="" style="endArrow=none;html=1;rounded=0;entryX=0.5;entryY=1;entryDx=0;entryDy=0;exitX=0.5;exitY=0;exitDx=0;exitDy=0;" edge="1" parent="1" source="KikncAoep48kT-CLDqjX-38" target="KikncAoep48kT-CLDqjX-22">
          <mxGeometry width="50" height="50" relative="1" as="geometry">
            <mxPoint x="535" y="550" as="sourcePoint" />
            <mxPoint x="585" y="500" as="targetPoint" />
          </mxGeometry>
        </mxCell>
        <mxCell id="KikncAoep48kT-CLDqjX-45" value="" style="endArrow=none;html=1;rounded=0;exitX=1;exitY=0.5;exitDx=0;exitDy=0;" edge="1" parent="1" source="KikncAoep48kT-CLDqjX-22" target="KikncAoep48kT-CLDqjX-66">
          <mxGeometry width="50" height="50" relative="1" as="geometry">
            <mxPoint x="535" y="550" as="sourcePoint" />
            <mxPoint x="675" y="530" as="targetPoint" />
          </mxGeometry>
        </mxCell>
        <mxCell id="KikncAoep48kT-CLDqjX-47" value="" style="endArrow=none;html=1;rounded=0;entryX=0;entryY=0;entryDx=0;entryDy=0;exitX=1;exitY=1;exitDx=0;exitDy=0;" edge="1" parent="1" target="KikncAoep48kT-CLDqjX-72" source="KikncAoep48kT-CLDqjX-89">
          <mxGeometry width="50" height="50" relative="1" as="geometry">
            <mxPoint x="620" y="230" as="sourcePoint" />
            <mxPoint x="640" y="280" as="targetPoint" />
          </mxGeometry>
        </mxCell>
        <mxCell id="KikncAoep48kT-CLDqjX-49" value="" style="endArrow=none;html=1;rounded=0;entryX=0.5;entryY=1;entryDx=0;entryDy=0;exitX=1;exitY=0.5;exitDx=0;exitDy=0;" edge="1" parent="1" target="KikncAoep48kT-CLDqjX-86" source="KikncAoep48kT-CLDqjX-89">
          <mxGeometry width="50" height="50" relative="1" as="geometry">
            <mxPoint x="520" y="120" as="sourcePoint" />
            <mxPoint x="660" y="190" as="targetPoint" />
          </mxGeometry>
        </mxCell>
        <mxCell id="KikncAoep48kT-CLDqjX-52" value="" style="endArrow=none;html=1;rounded=0;entryX=0.5;entryY=1;entryDx=0;entryDy=0;exitX=0.5;exitY=0;exitDx=0;exitDy=0;" edge="1" parent="1" source="KikncAoep48kT-CLDqjX-6" target="KikncAoep48kT-CLDqjX-58">
          <mxGeometry width="50" height="50" relative="1" as="geometry">
            <mxPoint x="400" y="410" as="sourcePoint" />
            <mxPoint x="450" y="360" as="targetPoint" />
          </mxGeometry>
        </mxCell>
        <mxCell id="KikncAoep48kT-CLDqjX-58" value="Выпускает" style="rhombus;whiteSpace=wrap;html=1;" vertex="1" parent="1">
          <mxGeometry x="230" y="160" width="80" height="80" as="geometry" />
        </mxCell>
        <mxCell id="KikncAoep48kT-CLDqjX-59" value="" style="endArrow=none;html=1;rounded=0;entryX=0.5;entryY=0;entryDx=0;entryDy=0;exitX=0.5;exitY=1;exitDx=0;exitDy=0;" edge="1" parent="1" source="KikncAoep48kT-CLDqjX-2" target="KikncAoep48kT-CLDqjX-58">
          <mxGeometry width="50" height="50" relative="1" as="geometry">
            <mxPoint x="400" y="410" as="sourcePoint" />
            <mxPoint x="450" y="360" as="targetPoint" />
          </mxGeometry>
        </mxCell>
        <mxCell id="KikncAoep48kT-CLDqjX-60" value="Издает" style="rhombus;whiteSpace=wrap;html=1;" vertex="1" parent="1">
          <mxGeometry x="-640" y="270" width="80" height="80" as="geometry" />
        </mxCell>
        <mxCell id="KikncAoep48kT-CLDqjX-61" value="" style="endArrow=none;html=1;rounded=0;entryX=0;entryY=0.5;entryDx=0;entryDy=0;exitX=0.5;exitY=1;exitDx=0;exitDy=0;" edge="1" parent="1" source="KikncAoep48kT-CLDqjX-34" target="KikncAoep48kT-CLDqjX-60">
          <mxGeometry width="50" height="50" relative="1" as="geometry">
            <mxPoint x="-150" y="410" as="sourcePoint" />
            <mxPoint x="-100" y="360" as="targetPoint" />
          </mxGeometry>
        </mxCell>
        <mxCell id="KikncAoep48kT-CLDqjX-62" value="Подписывает" style="rhombus;whiteSpace=wrap;html=1;" vertex="1" parent="1">
          <mxGeometry x="-460" y="40" width="100" height="80" as="geometry" />
        </mxCell>
        <mxCell id="KikncAoep48kT-CLDqjX-63" value="" style="endArrow=none;html=1;rounded=0;entryX=1;entryY=0.5;entryDx=0;entryDy=0;exitX=0;exitY=0.5;exitDx=0;exitDy=0;" edge="1" parent="1" source="KikncAoep48kT-CLDqjX-62" target="KikncAoep48kT-CLDqjX-34">
          <mxGeometry width="50" height="50" relative="1" as="geometry">
            <mxPoint x="50" y="410" as="sourcePoint" />
            <mxPoint x="100" y="360" as="targetPoint" />
          </mxGeometry>
        </mxCell>
        <mxCell id="KikncAoep48kT-CLDqjX-65" value="Дата выхода" style="ellipse;whiteSpace=wrap;html=1;aspect=fixed;" vertex="1" parent="1">
          <mxGeometry x="230" y="490" width="80" height="80" as="geometry" />
        </mxCell>
        <mxCell id="KikncAoep48kT-CLDqjX-66" value="Дата выхода" style="ellipse;whiteSpace=wrap;html=1;aspect=fixed;" vertex="1" parent="1">
          <mxGeometry x="685" y="520" width="80" height="80" as="geometry" />
        </mxCell>
        <mxCell id="KikncAoep48kT-CLDqjX-71" value="" style="endArrow=none;html=1;rounded=0;entryX=0.5;entryY=1;entryDx=0;entryDy=0;exitX=0.5;exitY=0;exitDx=0;exitDy=0;" edge="1" parent="1" source="KikncAoep48kT-CLDqjX-89" target="KikncAoep48kT-CLDqjX-74">
          <mxGeometry width="50" height="50" relative="1" as="geometry">
            <mxPoint x="290" y="380" as="sourcePoint" />
            <mxPoint x="565" y="90" as="targetPoint" />
          </mxGeometry>
        </mxCell>
        <mxCell id="KikncAoep48kT-CLDqjX-72" value="Дата" style="ellipse;whiteSpace=wrap;html=1;aspect=fixed;" vertex="1" parent="1">
          <mxGeometry x="685" y="200" width="80" height="80" as="geometry" />
        </mxCell>
        <mxCell id="KikncAoep48kT-CLDqjX-74" value="Название" style="ellipse;whiteSpace=wrap;html=1;aspect=fixed;" vertex="1" parent="1">
          <mxGeometry x="525" y="-20" width="80" height="80" as="geometry" />
        </mxCell>
        <mxCell id="KikncAoep48kT-CLDqjX-75" value="Дата рождеия" style="ellipse;whiteSpace=wrap;html=1;" vertex="1" parent="1">
          <mxGeometry x="80" y="-90" width="120" height="80" as="geometry" />
        </mxCell>
        <mxCell id="KikncAoep48kT-CLDqjX-76" value="" style="endArrow=none;html=1;rounded=0;entryX=0.567;entryY=-0.004;entryDx=0;entryDy=0;entryPerimeter=0;exitX=0.5;exitY=1;exitDx=0;exitDy=0;" edge="1" parent="1" source="KikncAoep48kT-CLDqjX-75" target="KikncAoep48kT-CLDqjX-2">
          <mxGeometry width="50" height="50" relative="1" as="geometry">
            <mxPoint x="260" y="360" as="sourcePoint" />
            <mxPoint x="310" y="310" as="targetPoint" />
          </mxGeometry>
        </mxCell>
        <mxCell id="KikncAoep48kT-CLDqjX-77" value="название песни" style="ellipse;whiteSpace=wrap;html=1;" vertex="1" parent="1">
          <mxGeometry x="120" y="425" width="120" height="80" as="geometry" />
        </mxCell>
        <mxCell id="KikncAoep48kT-CLDqjX-78" value="" style="endArrow=none;html=1;rounded=0;entryX=0.621;entryY=0.015;entryDx=0;entryDy=0;entryPerimeter=0;exitX=0.5;exitY=1;exitDx=0;exitDy=0;" edge="1" parent="1" source="KikncAoep48kT-CLDqjX-6" target="KikncAoep48kT-CLDqjX-77">
          <mxGeometry width="50" height="50" relative="1" as="geometry">
            <mxPoint x="260" y="360" as="sourcePoint" />
            <mxPoint x="310" y="310" as="targetPoint" />
          </mxGeometry>
        </mxCell>
        <mxCell id="KikncAoep48kT-CLDqjX-80" value="" style="endArrow=none;html=1;rounded=0;entryX=0.5;entryY=1;entryDx=0;entryDy=0;exitX=0.5;exitY=0;exitDx=0;exitDy=0;" edge="1" parent="1" source="KikncAoep48kT-CLDqjX-22" target="KikncAoep48kT-CLDqjX-28">
          <mxGeometry width="50" height="50" relative="1" as="geometry">
            <mxPoint x="260" y="360" as="sourcePoint" />
            <mxPoint x="310" y="310" as="targetPoint" />
          </mxGeometry>
        </mxCell>
        <mxCell id="KikncAoep48kT-CLDqjX-86" value="Место в чарте" style="ellipse;whiteSpace=wrap;html=1;" vertex="1" parent="1">
          <mxGeometry x="670" y="70" width="120" height="80" as="geometry" />
        </mxCell>
        <mxCell id="KikncAoep48kT-CLDqjX-88" value="Входит в состав" style="shape=rhombus;perimeter=rhombusPerimeter;whiteSpace=wrap;html=1;align=center;" vertex="1" parent="1">
          <mxGeometry x="370" y="340" width="120" height="60" as="geometry" />
        </mxCell>
        <mxCell id="KikncAoep48kT-CLDqjX-89" value="&lt;div&gt;Чарт&lt;/div&gt;" style="whiteSpace=wrap;html=1;align=center;" vertex="1" parent="1">
          <mxGeometry x="515" y="90" width="100" height="40" as="geometry" />
        </mxCell>
        <mxCell id="KikncAoep48kT-CLDqjX-90" value="" style="endArrow=none;html=1;rounded=0;entryX=0;entryY=0;entryDx=0;entryDy=0;exitX=1;exitY=0.5;exitDx=0;exitDy=0;" edge="1" parent="1" source="KikncAoep48kT-CLDqjX-6" target="KikncAoep48kT-CLDqjX-88">
          <mxGeometry width="50" height="50" relative="1" as="geometry">
            <mxPoint x="300" y="340" as="sourcePoint" />
            <mxPoint x="350" y="290" as="targetPoint" />
          </mxGeometry>
        </mxCell>
        <mxCell id="KikncAoep48kT-CLDqjX-91" value="" style="endArrow=none;html=1;rounded=0;entryX=0;entryY=0.25;entryDx=0;entryDy=0;exitX=1;exitY=1;exitDx=0;exitDy=0;" edge="1" parent="1" source="KikncAoep48kT-CLDqjX-88" target="KikncAoep48kT-CLDqjX-22">
          <mxGeometry width="50" height="50" relative="1" as="geometry">
            <mxPoint x="300" y="340" as="sourcePoint" />
            <mxPoint x="350" y="290" as="targetPoint" />
          </mxGeometry>
        </mxCell>
        <mxCell id="KikncAoep48kT-CLDqjX-92" value="" style="endArrow=none;html=1;rounded=0;entryX=0.5;entryY=0;entryDx=0;entryDy=0;exitX=0.5;exitY=1;exitDx=0;exitDy=0;" edge="1" parent="1" source="KikncAoep48kT-CLDqjX-89" target="KikncAoep48kT-CLDqjX-28">
          <mxGeometry width="50" height="50" relative="1" as="geometry">
            <mxPoint x="300" y="340" as="sourcePoint" />
            <mxPoint x="350" y="290" as="targetPoint" />
          </mxGeometry>
        </mxCell>
      </root>
    </mxGraphModel>
  </diagram>
</mxfile>
